<?xml version="1.0" encoding="UTF-8"?>
<svg id="Calque_1" data-name="Calque 1" xmlns="http://www.w3.org/2000/svg" viewBox="0 0 121.93 121.93">
  <defs>
    <style>
      .cls-1 {
        fill: #252437;
      }

      .cls-2 {
        fill: #edcc13;
      }
    </style>
  </defs>
  <g>
    <circle class="cls-2" cx="60.96" cy="60.96" r="60.96"/>
    <path class="cls-1" d="m32.95,91.65c-1.45-.03-2.39-.68-2.62-2.19-.17-.54-.17-1.09,0-1.63.73-6.49,3.61-11.76,8.67-15.93,2.85-2.34,5.99-4.05,9.36-5.44,2.23-.93,3.48-.62,4.83,1.26,2.19,3.03,4.41,6.05,6.58,9.09.81,1.14,1.4.55,1.94-.19,2.12-2.89,4.24-5.79,6.32-8.71,1.51-2.12,2.71-2.45,5.14-1.52,3.88,1.48,7.51,3.45,10.43,6.36,3.64,3.62,6.21,7.93,7,13.15.23,1.53.62,3.01-.14,4.49-.45.88-1.08,1.41-2.13,1.26-.41-.17-.85-.11-1.27-.11-17.62,0-35.23,0-52.85,0-.43,0-.86-.06-1.27.1Z"/>
  </g>
  <circle class="cls-1" cx="60.36" cy="46.6" r="16.14"/>
</svg>