<svg id="Calque_1" data-name="Calque 1" xmlns="http://www.w3.org/2000/svg" viewBox="0 0 1080 1080"><path d="M717.2,394.46H974.74v292s-144.86-59.86-257.54,0Z" style="fill:#efcc0b"/><path d="M305.82,429.65q0-2.32,6.12-2.33,4.95,0,12.23,2.77A39.16,39.16,0,0,1,338.3,440q6.84,7.14,11.65,19.67T354.76,492a115.16,115.16,0,0,1-6,35.39,256.24,256.24,0,0,1-15.15,36.71,292.42,292.42,0,0,1-20.54,34.66A326.61,326.61,0,0,1,291,627.59a172.75,172.75,0,0,1-19.81,19.81q-9,7.43-13.69,7.43a22.83,22.83,0,0,1-13.26-4.37A49.74,49.74,0,0,1,233,639.53a57.93,57.93,0,0,1-7.86-14,37.9,37.9,0,0,1-2.92-13.84,47.43,47.43,0,0,1,1.17-9.61c.77-3.69,1.75-7.57,2.91-11.65s2.48-8.16,3.93-12.24,2.87-7.76,4.22-11.06q-8.44,14.57-17.76,29.42t-17.77,26.94a189,189,0,0,1-15.59,19.81Q176.19,651,172.12,651a24.66,24.66,0,0,1-8.6-2.18,35.92,35.92,0,0,1-10.63-7,44.86,44.86,0,0,1-9.17-12.23q-3.94-7.43-3.94-17.92c0-3.68,1-8.64,3.06-14.85s4.61-13.16,7.72-20.83,6.6-15.73,10.49-24.18,7.72-16.65,11.5-24.62,7.33-15.48,10.64-22.57,5.82-13,7.57-17.62q4.37-11.07,3.06-18.36t-7.14-7.28q-5.84,0-12.38,4.08a73.22,73.22,0,0,0-13,10.49A118.6,118.6,0,0,0,149,490.68a148.9,148.9,0,0,0-10.49,16.75,117,117,0,0,0-7.28,16.31,42.07,42.07,0,0,0-2.77,13.69,29.61,29.61,0,0,1-11.36-3.2,24.92,24.92,0,0,1-8-6.12q-3.64-4.08-3.64-11.36a34.8,34.8,0,0,1,2.91-12.53,83,83,0,0,1,8.16-15.14,165.32,165.32,0,0,1,11.94-15.73A104.4,104.4,0,0,1,143,459.22a79.93,79.93,0,0,1,16-10.05,37.76,37.76,0,0,1,16-3.79q20.1,0,30.44,10.49t10.34,26.21q0,6.12-4.51,19.81t-11.07,30.74q-6.55,17-13.84,35.1t-12.82,32.91q-5.53,14.86-8.15,24.47t.29,9.61q3.49,0,9.17-6.11a139,139,0,0,0,12.53-16.17q6.84-10.05,14.56-22.87t15.3-26.36q7.57-13.55,14.71-26.36T244.8,514q5.67-10.05,9.61-16.17t5.1-6.11a12.28,12.28,0,0,1,5.82,1.75,26.19,26.19,0,0,1,6,4.51,27.43,27.43,0,0,1,4.66,6.26,14.12,14.12,0,0,1,1.89,6.7q0,2.34-3.2,12.09t-7.87,23q-4.67,13.28-9.61,28.26T249,601.81a121.38,121.38,0,0,0-3.79,20.83q-.58,8.29,3.21,8.3c2.71,0,6.41-2.28,11.07-6.85a138.72,138.72,0,0,0,15.29-18.5,264.67,264.67,0,0,0,16.89-27.52,304.9,304.9,0,0,0,15.59-33.65,256.57,256.57,0,0,0,11.36-36.85A167.41,167.41,0,0,0,323,470.14q0-14.56-2.62-21.56t-6-10.34a21.45,21.45,0,0,0-6-4.51A4.13,4.13,0,0,1,305.82,429.65Z" style="fill:#fff"/><path d="M399.7,522.69c9.32,0,18.93,13.11,18.93,23.89,0,3.2-.58,6.11-2.62,8.44C386.59,590.85,376.1,611,376.1,618.81c0,2.92,1.46,4.38,3.5,4.38,7.86,0,26.51-15.44,42.53-39.91,4.95-7.58,8.44-10.49,10.19-10.49,1.17,0,2,1.17,2,3.21,0,4.37-2.62,12.23-7.57,20.38-19.52,32-41.37,46.61-57.1,46.61-12.23,0-20.68-9.32-20.68-25.92,0-13.69,5.25-31.75,18.06-54.18a242.55,242.55,0,0,0-27.38,33.49c-3.49,5-7,7.29-9.32,7.29-1.75,0-2.91-1.17-2.91-3.5,0-3.49,2.33-9,7.57-16.89,24.18-35.25,52.14-60,61.46-60A12.48,12.48,0,0,1,399.7,522.69Z" style="fill:#fff"/><path d="M460.58,522.69c9.32,0,19.22,13.11,19.22,23.89a12.42,12.42,0,0,1-2.91,8.44,282.83,282.83,0,0,0-27.38,40.2c37.57-50.39,69.32-71.36,82.43-72a12.48,12.48,0,0,1,3.21-.58c9.32,0,18.93,13.11,18.93,23.89,0,3.2-.58,6.11-2.62,8.44C522,590.85,511.55,611,511.55,618.81c0,2.92,1.46,4.38,3.5,4.38,7.86,0,26.5-15.44,42.52-39.91,5-7.58,8.45-10.49,10.2-10.49,1.16,0,2,1.17,2,3.21,0,4.37-2.62,12.23-7.58,20.38-19.51,32-41.65,46.61-57.09,46.61-12.52,0-20.68-9-20.68-25.92,0-13.4,5.24-31.46,17.77-53.6C482.71,581,458,609.2,432.9,641a3.93,3.93,0,0,1-.87,1.17,9.58,9.58,0,0,1-7.86,3.5c-7,0-15.44-6.7-15.44-22.43V620c2.33-29.42,20.1-62.92,43.69-92.92A9.74,9.74,0,0,1,460.58,522.69Z" style="fill:#fff"/><path d="M669.14,587.36c-11.07,16.31-15.44,26.5-15.44,31.45,0,2.92,1.46,4.38,3.79,4.38,7.57,0,26.22-15.44,42.24-39.91,4.95-7.58,8.44-10.49,10.19-10.49,1.17,0,2,1.17,2,3.21,0,4.37-2.62,12.23-7.57,20.38C684.87,628.43,663,643,647.3,643c-12.24,0-20.4-9.32-20.4-25.92v-3.21c-16.6,20.39-34.37,29.42-48.35,29.42-14.85,0-25.34-10.48-25.34-29.42,0-13.39,4.95-30.58,17.18-51.26,18.36-30.88,42.82-42.82,61.76-42.82,15.15,0,26.5,7.57,28.84,18.93,17.76-26.21,43.69-63.21,51-72.24a9.64,9.64,0,0,1,7.87-4.37c8.73,0,17.47,12.53,17.47,23a13.19,13.19,0,0,1-2.91,8.74C723.9,506.38,675.26,578.33,669.14,587.36Zm-86.22,28c0,4.95,2.62,7.58,6.7,7.58,9.9,0,29.42-14.86,46.9-45.45a9.75,9.75,0,0,1-4.37,1.17c-3.21,0-5-2-5-4.66,0-3.21,2.92-7,9.33-8.74,7.57-1.75,12.52-11.07,12.52-18.06,0-3.79-1.74-6.7-5.53-6.7-7,0-21,9.9-45.15,42.82C587.58,598.13,582.92,608.91,582.92,615.32Z" style="fill:#fff"/><path id="Tracé_24420" data-name="Tracé 24420" d="M418.28,451.07h2.64A23.14,23.14,0,0,1,444,474.19h0a23.15,23.15,0,0,1-23.12,23.13h-2.64a23.16,23.16,0,0,1-23.13-23.13h0A23.15,23.15,0,0,1,418.28,451.07Z" style="fill:#e5190c"/><path id="Tracé_24421" data-name="Tracé 24421" d="M405.78,474.28a13.86,13.86,0,1,1,13.86,13.86h0a13.82,13.82,0,0,1-13.86-13.76Zm22.79-7.66a11,11,0,0,0-15.6-.38l-.05,0a11.05,11.05,0,0,0-.38,15.61l0,0a11.66,11.66,0,0,0,6.21,3.31,10.8,10.8,0,0,0,9.69-3.23,9.56,9.56,0,1,1,.09-15.39Zm.34,3.07h-.26l-3.91,1.7h-.34c-.68-.77-1.36-1.62-2.12-2.38l-.94-1.11h0a30.7,30.7,0,0,0,.43,4.17.41.41,0,0,1-.17.34l-3.83,1.7h-.26l4.17.93c.17,0,.26,0,.26.34a12.27,12.27,0,0,0,.34,3.57v.68c.68-1.27,1.44-2.46,2.12-3.65h.34l2.64.59,1.78.43-.17-.26-2.8-3.14v-.34l1.78-3Z" style="fill:#fff"/><path id="Tracé_24422" data-name="Tracé 24422" d="M428.57,466.62a9.61,9.61,0,1,0-.09,15.31,10.62,10.62,0,0,1-9.69,3.23,11.06,11.06,0,0,1,3.49-21.85,11.65,11.65,0,0,1,6.29,3.31Z" style="fill:#e5190c"/><path id="Tracé_24423" data-name="Tracé 24423" d="M428.91,469.69l-.51.93-1.79,3v.34l2.81,3.14.17.26-1.79-.43-2.63-.59h-.34c-.68,1.19-1.45,2.46-2.13,3.65v-.68c0-1.19-.25-2.38-.34-3.57a.38.38,0,0,0-.25-.34l-4.17-.93h.26l3.82-1.7c.17,0,.26,0,.17-.34a32.37,32.37,0,0,0-.42-4.17h0l.93,1.11c.68.76,1.36,1.53,2.13,2.38h.34l3.91-1.7Z" style="fill:#e5190c"/><path d="M768.82,499.65v36.22h16.49q6.42,0,8.58-2.37,2.88-3.11,3.21-11h2v31.9h-2c-.52-4.46-1-7.32-1.55-8.58a7.72,7.72,0,0,0-3.27-3.72q-2.26-1.35-7-1.35H768.82V571c0,4,.14,6.52.44,7.4a4.07,4.07,0,0,0,1.55,2.09q1.11.78,4.2.78h12.73q6.38,0,9.25-1.08a13.67,13.67,0,0,0,5.53-4.26q3.43-4.19,7-12.64h2.22l-6.48,23H747.45v-2.5h2.66a9,9,0,0,0,5-1.56,5.42,5.42,0,0,0,2.41-3.24q.65-2.16.64-8.85V510.59q0-8.71-1.44-10.74c-1.33-1.8-3.54-2.71-6.64-2.71h-2.66v-2.5h57.84l.83,20.07H804q-1.15-7.23-2.57-9.93a9.46,9.46,0,0,0-4.18-4.12c-1.48-.68-4.08-1-7.8-1Z" style="fill:#252437"/><path d="M805.67,586.78H747v-3.5h3.16a8.67,8.67,0,0,0,4.76-1.47,4.94,4.94,0,0,0,2.2-3c.41-1.39.62-4.32.62-8.71V510.59c0-7.07-.73-9.59-1.35-10.45-1.22-1.66-3.32-2.5-6.23-2.5H747v-3.5h58.82l.87,21.07h-3.1l-.07-.42c-.76-4.74-1.61-8-2.53-9.78a9,9,0,0,0-4-3.91c-1.38-.63-3.94-1-7.57-1H769.32v35.22h16c4.11,0,6.88-.75,8.21-2.21,1.83-2,2.86-5.55,3.08-10.63l0-.48h3V555h-3l0-.44a42.06,42.06,0,0,0-1.51-8.45,7.28,7.28,0,0,0-3.06-3.48c-1.43-.85-3.69-1.28-6.72-1.28h-16V571c0,5,.22,6.67.41,7.24a3.61,3.61,0,0,0,1.36,1.84c.45.31,1.49.69,3.92.69h12.73c4.17,0,7.22-.35,9.07-1a13.35,13.35,0,0,0,5.33-4.11c2.24-2.74,4.58-7,7-12.51l.13-.31h3.21Zm-57.72-1h57l6.2-22h-1.23a53.9,53.9,0,0,1-7,12.46,14.17,14.17,0,0,1-5.75,4.4c-2,.75-5.07,1.12-9.42,1.12H775c-2.19,0-3.66-.29-4.49-.87a4.65,4.65,0,0,1-1.74-2.34c-.31-.94-.46-3.41-.46-7.56V540.3h17c3.21,0,5.64.48,7.23,1.42a8.22,8.22,0,0,1,3.47,3.95,39.62,39.62,0,0,1,1.53,8.28h1.11v-30.9h-1.07c-.28,5.08-1.39,8.7-3.32,10.79-1.55,1.7-4.48,2.53-9,2.53h-17V499.15h21.09c3.83,0,6.45.34,8,1.05a10,10,0,0,1,4.41,4.35c.95,1.81,1.78,5,2.56,9.66h1.21l-.79-19.07H748v1.5h2.16c3.25,0,5.62,1,7,2.91,1,1.46,1.54,5.07,1.54,11v59.54c0,4.55-.22,7.49-.66,9a5.92,5.92,0,0,1-2.63,3.53,9.52,9.52,0,0,1-5.29,1.63H748Z" style="fill:#252437"/><path d="M888.7,586.28h-20l-25.41-42.84c-1.88.09-3.41.13-4.59.13l-1.55,0-1.72-.1v26.62q0,8.66,1.55,10.75a7.23,7.23,0,0,0,6.31,3h2.94v2.5H814v-2.5h2.82a7.13,7.13,0,0,0,6.81-3.79q1.16-2.09,1.16-9.93v-59.2q0-8.64-1.55-10.74a7.43,7.43,0,0,0-6.42-3H814v-2.5h27.34q12,0,17.63,2.13a20.49,20.49,0,0,1,9.63,7.84,23.31,23.31,0,0,1,4,13.62,24.33,24.33,0,0,1-4.51,14.66q-4.51,6.23-14,8.79L869.61,568q5.31,9,9.13,12a20.17,20.17,0,0,0,10,3.79Zm-53.3-47.1q1.05,0,1.83,0l1.27,0q10.74,0,16.19-5.67t5.45-14.46q0-8.58-4.4-14a14.3,14.3,0,0,0-11.65-5.37,40.84,40.84,0,0,0-8.69,1.28Z" style="fill:#252437"/><path d="M889.2,586.78H868.38l-.14-.25L843,544c-1.73.08-3.18.12-4.32.12l-1.57,0-1.2-.07v26.09c0,7,.79,9.55,1.45,10.45a6.69,6.69,0,0,0,5.91,2.77h3.44v3.5H813.54v-3.5h3.32c3,0,5.09-1.15,6.37-3.52.73-1.32,1.1-4.58,1.1-9.7v-59.2c0-7-.79-9.55-1.45-10.45a6.91,6.91,0,0,0-6-2.77h-3.32v-3.5h27.84c8,0,14,.73,17.8,2.17a20.86,20.86,0,0,1,9.87,8,23.85,23.85,0,0,1,4.05,13.9,24.9,24.9,0,0,1-4.61,15c-3,4.08-7.54,7-13.62,8.79L870,567.71c3.49,6,6.52,10,9,11.89a19.71,19.71,0,0,0,9.72,3.68l.43.06Zm-20.25-1H888.2v-1.57a20.5,20.5,0,0,1-9.77-3.82c-2.58-2-5.7-6.11-9.25-12.17l-15.83-26.85.63-.17c6.17-1.68,10.78-4.57,13.7-8.6a23.92,23.92,0,0,0,4.42-14.37,22.89,22.89,0,0,0-3.87-13.33,20,20,0,0,0-9.4-7.66c-3.71-1.39-9.58-2.1-17.45-2.1H814.54v1.5h2.32a7.94,7.94,0,0,1,6.83,3.18c1.1,1.5,1.64,5.11,1.64,11v59.2c0,5.36-.4,8.69-1.22,10.18-1.45,2.68-3.89,4-7.25,4h-2.32v1.5H845.7v-1.5h-2.44a7.72,7.72,0,0,1-6.72-3.19c-1.1-1.49-1.64-5.1-1.64-11V542.9l.54,0c.58,0,1.15.08,1.7.1l1.53,0c1.19,0,2.72,0,4.57-.13l.3,0Zm-30.45-46-1.29,0c-.51,0-1.12,0-1.81,0h-.5v-39l.39-.09a41.29,41.29,0,0,1,8.8-1.3,14.85,14.85,0,0,1,12,5.56c3,3.65,4.51,8.45,4.51,14.27a20.62,20.62,0,0,1-5.59,14.81C851.34,537.78,845.77,539.74,838.5,539.74Zm-2.6-1.06c.51,0,1,0,1.35,0l1.25,0c7,0,12.31-1.85,15.83-5.52a19.6,19.6,0,0,0,5.31-14.11c0-5.58-1.44-10.17-4.28-13.64a13.91,13.91,0,0,0-11.27-5.19,39.34,39.34,0,0,0-8.19,1.18Z" style="fill:#252437"/><path d="M908.69,543.37v26.69q0,8.66,1.55,10.75a7.27,7.27,0,0,0,6.36,3h2.88v2.5H887.32v-2.5h2.82q4.77,0,6.81-3.79,1.11-2.09,1.11-9.93v-59.2q0-8.64-1.5-10.74a7.41,7.41,0,0,0-6.42-3h-2.82v-2.5h27.51q10.08,0,15.89,2.54a22.54,22.54,0,0,1,9.79,8.55,25.19,25.19,0,0,1,4,14.26q0,11.21-6.06,18.24t-17.13,7a40.43,40.43,0,0,1-5.87-.47A65,65,0,0,1,908.69,543.37Zm0-3.85c1.95.45,3.69.78,5.2,1a26.22,26.22,0,0,0,3.87.34q5.76,0,9.94-5.44t4.18-14.09a30.06,30.06,0,0,0-2-11.05,16.06,16.06,0,0,0-5.64-7.64,14.21,14.21,0,0,0-8.3-2.53,27.4,27.4,0,0,0-7.25,1.28Z" style="fill:#252437"/><path d="M920,586.78H886.82v-3.5h3.32c3,0,5.09-1.15,6.37-3.52.7-1.32,1-4.58,1-9.7v-59.2c0-7-.76-9.56-1.4-10.45a6.9,6.9,0,0,0-6-2.77h-3.32v-3.5h28c6.75,0,12.17.87,16.09,2.58a23.2,23.2,0,0,1,10,8.73A25.83,25.83,0,0,1,945,520c0,7.56-2.08,13.81-6.18,18.57s-10,7.2-17.51,7.2a40.17,40.17,0,0,1-5.95-.48,62.34,62.34,0,0,1-6.17-1.27v26c0,7,.79,9.55,1.45,10.45a6.75,6.75,0,0,0,6,2.77H920Zm-32.16-1H919v-1.5H916.6a7.76,7.76,0,0,1-6.77-3.19c-1.1-1.48-1.64-5.1-1.64-11V542.72l.62.16a62.62,62.62,0,0,0,6.7,1.41,39.51,39.51,0,0,0,5.8.47c7.19,0,12.83-2.31,16.75-6.86S944,527.31,944,520a24.85,24.85,0,0,0-3.91-14,22.06,22.06,0,0,0-9.58-8.36c-3.79-1.66-9.06-2.5-15.68-2.5h-27v1.5h2.32a7.93,7.93,0,0,1,6.83,3.18c1.07,1.5,1.59,5.12,1.59,11v59.2c0,5.36-.38,8.68-1.17,10.17-1.45,2.69-3.89,4-7.25,4h-2.32Zm29.94-44.41a27.38,27.38,0,0,1-4-.35c-1.51-.22-3.28-.57-5.24-1l-.38-.09V501l.36-.11a28,28,0,0,1,7.39-1.3,14.75,14.75,0,0,1,8.58,2.62,16.64,16.64,0,0,1,5.83,7.87,30.62,30.62,0,0,1,2,11.23c0,5.85-1.44,10.69-4.29,14.39S921.75,541.37,917.76,541.37Zm-8.57-2.25c1.77.4,3.38.71,4.77.91a26.66,26.66,0,0,0,3.8.34c3.66,0,6.87-1.77,9.54-5.25s4.08-8.16,4.08-13.78a29.78,29.78,0,0,0-2-10.87,15.67,15.67,0,0,0-5.47-7.41,13.76,13.76,0,0,0-8-2.44,26.11,26.11,0,0,0-6.75,1.16Z" style="fill:#252437"/></svg>